<?xml version="1.0" standalone="no"?>
<!DOCTYPE svg PUBLIC "-//W3C//DTD SVG 20010904//EN"
 "http://www.w3.org/TR/2001/REC-SVG-20010904/DTD/svg10.dtd">
<svg version="1.0" xmlns="http://www.w3.org/2000/svg"
 width="371.000000pt" height="371.000000pt" viewBox="0 0 371.000000 371.000000"
 preserveAspectRatio="xMidYMid meet">
<metadata>
Created by potrace 1.11, written by Peter Selinger 2001-2013
</metadata>
<g transform="translate(0.000000,371.000000) scale(0.100000,-0.100000)"
fill="#000000" stroke="none">
<path d="M485 2481 c-286 -80 -471 -309 -480 -596 -4 -128 13 -207 67 -315 78
-156 218 -271 394 -325 109 -33 264 -30 372 8 200 70 351 223 414 420 29 91
32 250 6 347 -56 214 -204 371 -424 450 -87 31 -256 37 -349 11z"/>
<path d="M2785 2218 c-49 -13 -89 -56 -104 -111 -13 -48 -11 -60 12 -103 17
-33 40 -44 95 -44 41 0 70 14 99 48 l22 26 11 -29 c14 -37 7 -132 -14 -202
-25 -80 -73 -123 -138 -123 -41 0 -54 8 -67 43 -6 15 -15 27 -21 27 -13 0 -13
-2 6 -49 14 -35 21 -41 57 -48 94 -19 201 56 233 162 33 113 20 218 -39 311
-25 40 -91 105 -105 103 -4 -1 -25 -6 -47 -11z m60 -54 c26 -35 45 -88 39
-112 -7 -25 -55 -52 -93 -52 -25 0 -32 5 -37 26 -8 32 1 116 16 144 15 28 51
25 75 -6z"/>
<path d="M3203 2217 c-65 -24 -98 -68 -107 -145 -6 -43 23 -97 57 -106 63 -17
115 -3 154 41 20 23 22 23 31 6 25 -50 3 -201 -40 -271 -24 -39 -65 -62 -110
-62 -40 0 -50 7 -65 43 -15 33 -37 37 -28 5 19 -69 49 -86 130 -74 74 12 161
93 171 161 2 11 7 36 12 55 10 40 9 99 -2 150 -15 65 -88 174 -134 199 -25 13
-28 13 -69 -2z m71 -64 c13 -21 27 -51 30 -66 15 -65 -114 -126 -130 -61 -8
32 1 116 16 144 18 33 56 26 84 -17z"/>
<path d="M1951 2213 c-23 -10 -60 -56 -70 -88 -27 -81 -18 -148 32 -258 104
-225 112 -306 36 -349 -77 -45 -148 -5 -139 77 3 30 20 35 41 14 35 -35 60
-16 34 25 -26 39 -52 42 -86 10 -69 -66 4 -195 103 -181 73 9 144 80 154 153
12 82 -2 131 -86 308 -51 108 -62 180 -32 214 28 31 64 36 93 13 21 -17 22
-22 12 -40 -7 -11 -13 -31 -13 -43 l0 -21 25 23 c14 13 25 27 25 32 0 5 11 25
25 46 18 27 21 38 12 44 -7 4 -17 1 -24 -9 -12 -15 -15 -15 -36 6 -25 22 -80
35 -106 24z"/>
<path d="M2170 2164 c-50 -17 -46 -39 6 -36 50 4 54 -6 48 -113 -2 -38 -5
-141 -8 -228 -2 -87 -6 -160 -8 -163 -2 -2 -15 -5 -29 -7 -16 -3 -24 -11 -24
-23 0 -10 6 -18 13 -16 43 8 62 11 100 11 39 1 43 3 40 24 -2 13 -9 21 -18 20
-20 -4 -25 26 -22 151 2 122 10 148 65 208 108 118 149 85 164 -136 5 -75 4
-90 -10 -97 -32 -18 -9 -36 41 -31 67 6 98 20 83 35 -6 6 -19 12 -29 12 -14 0
-17 10 -18 50 -1 89 -16 169 -37 200 -27 40 -78 84 -97 85 -22 0 -81 -38 -111
-71 -14 -16 -30 -29 -35 -29 -5 0 -9 28 -9 61 1 101 -22 121 -105 93z"/>
</g>
</svg>
